HIERARCHY
ROOT root
{
	OFFSET	0	260	24
	CHANNELS 6  Xposition Yposition Zposition Xrotation Yrotation Zrotation
	JOINT spine_3
	{
		OFFSET	0	81.6	10.2
		CHANNELS 3  Xrotation Yrotation Zrotation
		JOINT spine_4
		{
			OFFSET	0	110.4	14.6
			CHANNELS 3  Xrotation Yrotation Zrotation
			JOINT neck_1
			{
				OFFSET	0	71.8	-50.3
				CHANNELS 3  Xrotation Yrotation Zrotation
				JOINT neck_2
				{
					OFFSET	0	86.2	-25.8
					CHANNELS 3  Xrotation Yrotation Zrotation
					JOINT head_ee
					{
						OFFSET	0	179.8	-8.7
						CHANNELS 3  Xrotation Yrotation Zrotation
						End Site
						{
							OFFSET	1	0	0
						}
					}
				}
			}
			JOINT left_clavicle
			{
				OFFSET	-43.2	22.4	-70.8
				CHANNELS 3  Xrotation Yrotation Zrotation
				JOINT left_shoulder
				{
					OFFSET	-93.9	-5.79999	48.7
					CHANNELS 3  Xrotation Yrotation Zrotation
					JOINT left_elbow
					{
						OFFSET	-291.4	-30.8	15.2
						CHANNELS 3  Xrotation Yrotation Zrotation
						JOINT left_lowarm_twist
						{
							OFFSET	-110.7	-3.89999	13.6
							CHANNELS 3  Xrotation Yrotation Zrotation
							JOINT left_hand
							{
								OFFSET	-110.7	-3.89999	13.6
								CHANNELS 3  Xrotation Yrotation Zrotation
								JOINT left_ee
								{
									OFFSET	-80.8	-5.10001	12.1
									CHANNELS 3  Xrotation Yrotation Zrotation
									End Site
									{
										OFFSET	1	0	0
									}
								}
							}
						}
					}
				}
			}
			JOINT right_clavicle
			{
				OFFSET	43.2	22.4	-70.8
				CHANNELS 3  Xrotation Yrotation Zrotation
				JOINT right_shoulder
				{
					OFFSET	93.9	-5.79999	48.7
					CHANNELS 3  Xrotation Yrotation Zrotation
					JOINT right_elbow
					{
						OFFSET	291.4	-30.8	15.2
						CHANNELS 3  Xrotation Yrotation Zrotation
						JOINT right_lowarm_twist
						{
							OFFSET	110.7	-3.89999	13.6
							CHANNELS 3  Xrotation Yrotation Zrotation
							JOINT right_hand
							{
								OFFSET	110.7	-3.89999	13.6
								CHANNELS 3  Xrotation Yrotation Zrotation
								JOINT right_ee
								{
									OFFSET	80.8	-5.10001	12.1
									CHANNELS 3  Xrotation Yrotation Zrotation
									End Site
									{
										OFFSET	1	0	0
									}
								}
							}
						}
					}
				}
			}
		}
	}
	JOINT spine_2
	{
		OFFSET	0	-124.9	-9.1
		CHANNELS 3  Xrotation Yrotation Zrotation
		JOINT spine_1
		{
			OFFSET	0	-112	10
			CHANNELS 3  Xrotation Yrotation Zrotation
			JOINT left_hip
			{
				OFFSET	-82.8	-137.5	0.300001
				CHANNELS 3  Xrotation Yrotation Zrotation
				JOINT left_knee
				{
					OFFSET	-28.2	-396.7	2.2
					CHANNELS 3  Xrotation Yrotation Zrotation
					JOINT left_ankle
					{
						OFFSET	-11.7	-411.3	35.4
						CHANNELS 3  Xrotation Yrotation Zrotation
						JOINT left_toes
						{
							OFFSET	0	-60	-88.6
							CHANNELS 3  Xrotation Yrotation Zrotation
							JOINT left_foot_ee
							{
								OFFSET	-22.5	-16.5	-42.2
								CHANNELS 3  Xrotation Yrotation Zrotation
								End Site
								{
									OFFSET	1	0	0
								}
							}
						}
					}
				}
			}
			JOINT right_hip
			{
				OFFSET	82.8	-137.5	0.300001
				CHANNELS 3  Xrotation Yrotation Zrotation
				JOINT right_knee
				{
					OFFSET	28.2	-396.7	2.2
					CHANNELS 3  Xrotation Yrotation Zrotation
					JOINT right_ankle
					{
						OFFSET	11.7	-411.3	35.4
						CHANNELS 3  Xrotation Yrotation Zrotation
						JOINT right_toes
						{
							OFFSET	0	-60	-88.6
							CHANNELS 3  Xrotation Yrotation Zrotation
							JOINT right_foot_ee
							{
								OFFSET	22.5	-16.5	-42.2
								CHANNELS 3  Xrotation Yrotation Zrotation
								End Site
								{
									OFFSET	1	0	0
								}
							}
						}
					}
				}
			}
		}
	}
}
MOTION
Frames: 10
Frame Time: 0.02
1002.59 974.583 -1608.89 2.95578 50.8727 0.652778 0.5297 0.190265 -1.86682 0.524852 -0.106899 -1.87344 -12.3639 7.44398 5.17693 -12.3561 10.8365 7.09346 -0.0 0.0 -0.0 5.18832 5.71222 10.1484 5.87773 -23.8023 50.2552 1.41363 -35.0004 0.44574 9.02824 0.229528 -1.12924 -1.21429 -7.50264 -11.457 -0.0 0.0 -0.0 8.32846 -0.313854 -16.24 -37.1514 34.0415 -50.1871 0.585552 16.1757 -0.0832106 -70.8174 6.65039 -5.30885 -5.51299 -16.2246 28.5651 0.0 0.0 0.0 -0.528671 0.171988 1.86859 -0.530567 0.290522 1.85387 15.1438 -4.32738 -6.65842 -30.0609 0.0417298 4.56049 26.0754 21.1121 -3.56845 -2.19223 0.0 0.0 -0.0 0.0 -0.0 28.9106 27.0419 -12.4024 -26.5466 -0.160772 -4.03437 21.074 -15.299 2.89295 -13.9883 0.0 0.0 0.0 0.0 0.0 
999.593 972.673 -1614.14 2.61285 51.4621 0.935453 0.427267 0.248089 -1.59176 0.423731 -0.00637978 -1.61096 -11.6732 6.83242 5.27738 -11.6412 9.51968 6.95761 -0.0 0.0 -0.0 5.02629 4.24469 9.82328 7.8122 -24.4236 50.003 1.30742 -32.9279 0.386398 8.75826 0.225259 -1.09502 -1.13624 -9.6518 -11.8529 -0.0 0.0 -0.0 8.67315 -0.741369 -16.9214 -37.3733 34.2893 -50.4392 0.588219 16.2455 -0.0839552 -70.5488 6.61609 -5.30685 -5.79925 -18.3514 28.9541 0.0 0.0 0.0 -0.426557 0.0681076 1.60954 -0.427983 0.170375 1.60194 13.7105 -3.41696 -6.35582 -27.957 0.11688 4.24637 27.467 19.7359 -3.71077 -0.573748 0.0 0.0 -0.0 0.0 -0.0 29.7797 26.8065 -13.2412 -22.7407 -0.253028 -3.45771 18.2819 -16.8487 2.55096 -13.6062 0.0 0.0 0.0 0.0 0.0 
986.092 980.275 -1627.61 0.139489 52.6851 3.44862 0.765313 0.227924 -1.20492 0.763288 0.0347833 -1.2258 -10.0217 4.28521 5.11779 -9.95705 4.60685 6.04926 -0.0 0.0 -0.0 5.46778 7.95669 10.672 7.34554 -23.8139 49.2818 1.56809 -37.8369 0.537471 6.91395 0.191791 -0.861814 -1.44039 -13.7246 -15.706 -0.0 0.0 -0.0 8.92207 -2.14712 -17.3676 -37.4219 34.6568 -52.3806 0.522772 14.5189 -0.066593 -70.6175 6.62486 -5.30737 -6.13863 -21.2818 28.9286 0.0 0.0 0.0 -0.76492 -0.00230153 1.22629 -0.765753 0.075729 1.22395 12.9139 -0.741826 -7.09865 -21.8834 0.268508 3.32707 25.3584 20.652 -3.47535 -2.04602 0.0 0.0 -0.0 0.0 -0.0 29.5021 26.9352 -12.5285 -18.2528 -0.312341 -2.77181 10.5123 -13.0819 1.49778 -12.3829 0.0 0.0 0.0 0.0 0.0 
978.83 980.465 -1631.71 -0.489479 52.9852 4.56414 0.794755 0.207855 -1.03232 0.79327 0.0422205 -1.05219 -8.03918 2.98827 4.56503 -7.98321 2.34959 5.17111 -0.0 0.0 -0.0 5.86302 10.3519 11.3546 7.87088 -23.4849 49.3076 1.72737 -40.5497 0.638152 5.26558 0.155538 -0.654376 -1.78502 -16.2013 -19.1617 -0.0 0.0 -0.0 9.03626 -2.01425 -17.6016 -36.7786 35.2881 -53.0096 0.457768 12.7768 -0.0512533 -70.2945 6.58361 -5.3048 -6.21183 -22.6211 28.2919 0.0 0.0 0.0 -0.79447 -0.01543 1.05292 -0.795085 0.0515976 1.05177 11.0004 1.39856 -7.30812 -17.3531 0.317757 2.63388 23.8996 21.2351 -3.30664 -2.98988 0.0 0.0 -0.0 0.0 -0.0 28.8632 27.5587 -12.6403 -14.3663 -0.320198 -2.17567 4.36877 -12.2141 0.633631 -11.5826 0.0 0.0 0.0 0.0 0.0 
969.231 982.842 -1643.7 -1.38165 53.1451 5.73981 0.630058 0.195158 -0.936112 0.628838 0.0448741 -0.955183 -8.54366 -1.943 6.48373 -8.42507 -8.16795 5.9716 -0.0 0.0 -0.0 6.14013 11.8679 11.8022 8.08828 -22.9585 49.2323 1.89443 -43.1768 0.749674 4.30356 0.131625 -0.533813 -1.83661 -18.1281 -20.3162 -0.0 0.0 -0.0 9.5569 -4.27867 -18.5109 -37.7224 38.3741 -51.6941 0.388883 10.9042 -0.037117 -70.1985 6.57136 -5.304 -5.68856 -22.5626 24.8612 0.0 0.0 0.0 -0.629826 -0.0150602 0.956118 -0.630334 0.0458078 0.955139 8.63275 -1.71709 -7.74014 -14.753 0.321228 2.23499 24.2196 18.1503 -3.30488 -2.7494 0.0 0.0 -0.0 0.0 -0.0 29.4343 28.2824 -11.949 -14.7178 -0.321151 -2.22959 -2.75819 -0.595781 -0.410044 -8.01219 0.0 0.0 0.0 0.0 0.0 
962.301 985.716 -1654.18 -1.46602 53.3802 6.66901 0.98671 0.0421589 -0.770161 0.985891 -0.0799991 -0.767154 -7.28093 -3.27938 5.60297 -7.18026 -10.1206 4.92395 -0.0 0.0 -0.0 6.11787 13.2355 11.721 6.71226 -22.1736 48.2399 1.93278 -43.7499 0.776055 3.64501 0.11409 -0.451518 -1.4982 -19.1707 -18.3646 -0.0 0.0 -0.0 10.0043 -8.06327 -19.0687 -40.532 41.9954 -50.5804 0.315737 8.88961 -0.024543 -72.4691 6.86142 -5.31758 -5.61021 -24.8377 22.5625 0.0 0.0 0.0 -0.98653 0.0943574 0.765521 -0.986845 0.142877 0.757966 8.92433 3.52316 -8.88494 -10.8888 0.292958 1.64289 23.6904 19.2999 -3.25452 -4.60729 0.0 0.0 -0.0 0.0 -0.0 29.0662 29.0095 -12.4939 -13.6402 -0.317182 -2.06431 -2.38712 3.91072 -0.359628 -6.18422 0.0 0.0 0.0 0.0 0.0 
949.401 984.524 -1655.6 -2.04238 53.0628 7.35069 0.827855 -0.0237195 -0.618631 0.827342 -0.121121 -0.607122 -5.89559 -4.9312 4.24904 -5.80945 -12.2419 3.38511 -0.0 0.0 -0.0 6.45694 14.1028 12.2587 5.08872 -21.5942 48.0501 2.05631 -45.5235 0.862853 1.88611 0.062626 -0.232747 -0.992844 -19.2647 -14.9138 -0.0 0.0 -0.0 9.88005 -9.48235 -18.6889 -39.7205 44.1841 -50.4293 0.271875 7.67056 -0.0182261 -73.6623 7.01394 -5.32008 -4.69897 -22.6836 18.4991 0.0 0.0 0.0 -0.827733 0.135821 0.604003 -0.827919 0.17398 0.594137 7.87633 3.13008 -8.64206 -9.73896 0.276843 1.46719 23.6447 20.2594 -3.26146 -3.37197 0.0 0.0 -0.0 0.0 -0.0 28.5345 29.5337 -11.5677 -14.532 -0.320688 -2.20109 -4.85806 8.83806 -0.752844 -3.26698 0.0 0.0 0.0 0.0 0.0 
945.191 981.775 -1656.93 -3.27565 52.5774 8.73235 0.737972 0.0485199 -0.415335 0.737732 -0.0176828 -0.417785 -5.63643 -7.20559 -0.0344717 -5.60986 -13.2707 -1.34922 -0.0 0.0 -0.0 6.63418 14.2309 12.5503 4.37001 -21.5589 47.6694 2.16569 -47.006 0.941895 2.58693 0.0839366 -0.319727 -0.309502 -18.7244 -10.0492 -0.0 0.0 -0.0 10.0554 -10.1038 -18.9501 -40.1051 45.4745 -48.3743 0.322271 9.07055 -0.025563 -73.7959 7.03101 -5.32016 -3.93673 -19.8186 15.6539 0.0 0.0 0.0 -0.737922 0.0291243 0.417144 -0.738017 0.055609 0.414445 8.4682 2.91568 -8.39365 -10.5135 0.288086 1.5855 26.4981 19.7852 -3.59812 -2.79914 0.0 0.0 -0.0 0.0 -0.0 28.7487 29.8692 -12.527 -14.3469 -0.320136 -2.17269 -1.24039 2.50041 -0.185426 4.49493 -0.0 -0.0 0.0 0.0 0.0 
937.84 983.033 -1661.2 -2.63827 53.2721 8.92433 0.787949 -0.193849 -0.152322 0.787982 -0.215472 -0.119796 -5.08673 -9.37419 -0.97683 -5.0321 -16.5225 -2.62808 -0.0 0.0 -0.0 6.74989 14.6137 12.7242 2.77098 -20.9945 47.2536 2.27027 -48.3503 1.01922 -1.84578 -0.0686806 0.225686 0.444517 -16.3745 -3.98436 -0.0 0.0 -0.0 8.69864 -8.13306 -16.5929 -36.142 48.6097 -52.6805 0.308367 8.68531 -0.0234172 -74.1414 7.07517 -5.32018 -3.71264 -18.0954 15.3028 0.0 0.0 0.0 -0.787948 0.218474 0.114229 -0.787927 0.2253 0.100095 7.29885 5.10996 -8.40121 -7.45225 0.234332 1.11889 26.5403 20.3505 -3.61164 -2.29903 0.0 0.0 -0.0 0.0 -0.0 28.4049 28.5509 -11.5497 -15.8126 -0.321999 -2.39757 -6.04213 8.0163 -0.934389 8.01178 -0.0 -0.0 0.0 0.0 0.0 
942.068 980.389 -1669.63 -0.7164 54.316 7.08483 0.780886 -0.17252 0.189426 0.780863 -0.140439 0.214295 -7.82144 -9.27637 -2.47034 -7.83133 -15.5601 -4.45158 -0.0 0.0 -0.0 6.8435 13.3458 12.9499 1.32065 -20.4405 46.0029 2.02117 -45.0301 0.837891 -4.79448 -0.193403 0.581372 1.46787 -20.0622 1.20657 -0.0 0.0 -0.0 9.72958 -10.7108 -18.2782 -36.0271 47.8907 -50.5211 0.394246 11.0509 -0.0381383 -73.4481 6.98655 -5.31987 -2.91227 -15.2496 11.8675 0.0 0.0 0.0 -0.780889 0.134842 -0.21786 -0.780908 0.120706 -0.225999 6.70279 4.56429 -8.39117 -9.64642 0.275393 1.45306 29.211 19.1515 -3.90148 -2.21776 0.0 0.0 -0.0 0.0 -0.0 29.1254 29.8234 -12.2051 -21.312 -0.277739 -3.23987 -2.32369 8.64147 -0.357737 10.6052 -0.0 -0.0 0.0 0.0 0.0 
